<svg width="45" height="45" viewBox="0 0 45 45" fill="none" xmlns="http://www.w3.org/2000/svg">
<g clip-path="url(#clip0_1914_8242)">
<path d="M42.1646 37.6656H35.7996C35.4354 37.6656 35.1404 37.9608 35.1404 38.3248C35.1404 38.6889 35.4354 38.984 35.7996 38.984H41.5054V39.3559L31.9072 41.1786H12.6673L3.06909 39.3559V38.984H5.68999C5.69104 38.984 5.6921 38.9842 5.69307 38.9842C5.69386 38.9842 5.69474 38.984 5.69553 38.984H8.07051C8.0713 38.984 8.072 38.9842 8.07279 38.9842C8.07402 38.9842 8.07534 38.984 8.07657 38.984H15.9794C15.9799 38.984 15.9803 38.9841 15.9808 38.9841C15.9813 38.9841 15.9816 38.984 15.9821 38.984H18.3371C18.3378 38.984 18.3385 38.9842 18.3392 38.9842C18.3399 38.9842 18.3407 38.984 18.3414 38.984H26.2331C26.2339 38.984 26.2346 38.9842 26.2353 38.9842C26.236 38.9842 26.2367 38.984 26.2373 38.984H33.3517C33.7158 38.984 34.0109 38.6889 34.0109 38.3248C34.0109 37.9608 33.7158 37.6656 33.3517 37.6656H29.0999C29.8872 37.1654 30.6218 36.5795 31.2823 35.9194C32.2357 34.9656 33.0183 33.8869 33.6165 32.7206C34.4501 33.0601 35.3327 33.2324 36.2477 33.2324C40.1083 33.2324 43.2491 30.0912 43.2491 26.2302C43.2491 22.3696 40.1083 19.2288 36.2477 19.2288C35.8294 19.2288 35.4149 19.2667 35.0076 19.3397V18.9626C35.0076 18.1189 34.3212 17.4324 33.4775 17.4324H30.3599C29.9958 17.4324 29.7007 17.7276 29.7007 18.0916C29.7007 18.4557 29.9958 18.7508 30.3599 18.7508H33.4775C33.5942 18.7508 33.6892 18.8458 33.6892 18.9626V20.0832H10.8842V18.9626C10.8842 18.8458 10.9792 18.7508 11.0961 18.7508H27.9113C28.2754 18.7508 28.5705 18.4557 28.5705 18.0916C28.5705 17.7276 28.2754 17.4324 27.9113 17.4324H11.0961C10.2523 17.4324 9.56588 18.1189 9.56588 18.9626V26.9237C9.56588 27.918 9.68216 28.9037 9.90874 29.861C8.83586 29.5411 7.5574 29.7925 6.39092 30.5906C6.09042 30.7962 6.01343 31.2064 6.219 31.5069C6.42467 31.8073 6.83494 31.8842 7.13535 31.6787C7.89982 31.1557 8.70209 30.9504 9.36549 31.0833L6.96449 34.6755C6.76217 34.9782 6.84355 35.3876 7.14616 35.5898C7.25866 35.6651 7.38602 35.7011 7.51188 35.7011C7.72466 35.7011 7.93349 35.5983 8.06049 35.4082L10.4622 31.8147C10.7113 32.1844 10.8478 32.6683 10.8542 33.2322C10.8542 33.2324 10.8542 33.2326 10.8542 33.2329C10.8542 33.2341 10.8543 33.2353 10.8543 33.2366C10.8631 34.1074 10.5589 35.0493 9.99769 35.8888C9.67776 36.3676 9.29948 36.7781 8.8711 37.1107C8.57412 37.3433 8.26211 37.5293 7.94245 37.6656H5.86006C5.83624 37.6514 5.81251 37.6371 5.78887 37.6211C4.69138 36.8881 4.62194 34.9924 5.63075 33.3053C5.81761 32.9929 5.71583 32.588 5.40338 32.4012C5.0911 32.2145 4.68619 32.3161 4.49934 32.6286C3.85624 33.704 3.54212 34.9021 3.61489 36.0024C3.6562 36.6267 3.81959 37.1893 4.08854 37.6656H2.40991C2.04578 37.6656 1.75073 37.9607 1.75073 38.3247V39.9015C1.75073 40.2182 1.97591 40.49 2.28695 40.5491L11.9804 42.3899V44.3408C11.9804 44.7048 12.2755 44.9999 12.6396 44.9999H31.934C32.2982 44.9999 32.5932 44.7048 32.5932 44.3408V42.3901L42.2876 40.5491C42.5986 40.49 42.8238 40.2181 42.8238 39.9015V38.3247C42.8238 37.9608 42.5286 37.6656 42.1646 37.6656ZM35.0075 26.9236V23.8049H35.0076C35.3895 23.6088 35.812 23.5047 36.2477 23.5047C37.7506 23.5047 38.9732 24.7274 38.9732 26.2302C38.9732 27.733 37.7506 28.9557 36.2477 28.9557C35.7688 28.9557 35.3078 28.8313 34.8983 28.5968C34.9702 28.0465 35.0075 27.4879 35.0075 26.9236ZM34.648 29.9448C35.1492 30.1612 35.6906 30.2741 36.2477 30.2741C38.4775 30.2741 40.2916 28.4601 40.2916 26.2303C40.2916 24.0005 38.4775 22.1864 36.2477 22.1864C35.8223 22.1864 35.405 22.253 35.0076 22.381V20.7492C35.0076 20.7469 35.0079 20.7447 35.0079 20.7424C35.0079 20.7401 35.0076 20.7379 35.0076 20.7356V20.6839C35.4122 20.5935 35.8276 20.5472 36.2478 20.5472C39.3814 20.5472 41.9308 23.0965 41.9308 26.2302C41.9308 29.3643 39.3814 31.9141 36.2478 31.9141C35.521 31.9141 34.8205 31.7786 34.1575 31.5152C34.355 31.0042 34.5184 30.4796 34.648 29.9448ZM10.8842 21.4016H33.6892V23.4306C33.6892 23.4313 33.6892 23.4321 33.6892 23.4328V26.9237C33.6892 29.9694 32.5033 32.8332 30.3502 34.9872C29.1572 36.1793 27.6961 37.1032 26.1197 37.6656H18.4556C18.243 37.59 18.0314 37.5086 17.8225 37.4196C18.3062 36.6591 18.4905 35.8131 18.3313 35.0068C18.3311 35.0057 18.331 35.0048 18.3309 35.0037C18.3306 35.0025 18.3302 35.0012 18.33 35C18.1198 33.951 17.3787 33.088 16.2424 32.5696C15.178 32.084 13.8772 31.9583 12.5793 32.216C12.4613 32.2395 12.3443 32.2663 12.2283 32.2957C11.3484 30.6509 10.8842 28.8049 10.8842 26.9237V21.4016ZM11.0939 36.6213C11.7042 35.7083 12.0724 34.6845 12.1547 33.6924C12.3758 33.6178 12.6033 33.5554 12.8363 33.5089C14.5135 33.176 16.1307 33.6807 16.7755 34.6408L12.5392 35.4829C12.1821 35.5539 11.9502 35.9008 12.0211 36.2579C12.0835 36.5716 12.3589 36.7887 12.667 36.7887C12.7096 36.7887 12.7529 36.7845 12.7962 36.7758L17.0352 35.9331C16.9506 36.3668 16.7089 36.8015 16.3218 37.2009C16.3207 37.2019 16.3197 37.2031 16.3188 37.2041C16.1573 37.3698 15.9748 37.5241 15.776 37.6655H10.2335C10.5495 37.3539 10.8377 37.0049 11.0939 36.6213ZM31.2749 43.6818H13.2987V42.497H31.2749V43.6818Z" fill="#BC9A6C"/>
<path d="M24.0034 13.1791C23.9912 13.1869 23.9812 13.1931 23.974 13.1977C23.9807 13.1933 23.9906 13.1871 24.0034 13.1791Z" fill="#BC9A6C"/>
<path d="M23.9741 13.1972C23.9562 13.2084 23.9585 13.207 23.9741 13.1972V13.1972Z" fill="#BC9A6C"/>
<path d="M25.4299 7.19543C26.3176 6.35168 26.8288 5.18247 26.8288 3.92739C26.8288 2.36514 26.038 0.934895 24.7133 0.10134C24.4052 -0.0925465 23.9981 9.01893e-05 23.8043 0.308235C23.6105 0.616379 23.7031 1.02331 24.0112 1.2172C24.9501 1.80791 25.5106 2.82103 25.5106 3.92731C25.5106 5.03359 24.9501 6.0467 24.0112 6.63741C23.6083 6.89019 23.6083 7.49962 24.0112 7.75327C24.9501 8.34399 25.5106 9.3571 25.5106 10.4634C25.5106 11.5697 24.9502 12.583 24.0113 13.1737C24.0079 13.1758 24.0057 13.1772 24.0027 13.1791C24.0055 13.1774 24.0082 13.1757 24.0113 13.1738C23.7032 13.3676 23.6105 13.7746 23.8044 14.0827C23.9297 14.2819 24.1439 14.3909 24.3629 14.3909C24.4829 14.3909 24.6043 14.3582 24.7133 14.2896C26.038 13.4561 26.8288 12.0258 26.8288 10.4636C26.8288 9.20839 26.3175 8.03918 25.4299 7.19543ZM24.3551 12.9573C24.3707 12.9475 24.3726 12.9463 24.3551 12.9573V12.9573ZM24.2693 13.0114C24.2837 13.0023 24.2971 12.9939 24.3091 12.9864C24.2976 12.9936 24.2847 13.0017 24.2693 13.0114Z" fill="#BC9A6C"/>
<path d="M29.3523 6.6376C29.0443 6.44371 28.6372 6.53626 28.4434 6.8445C28.2495 7.15255 28.3421 7.55957 28.6503 7.75346C29.589 8.34417 30.1495 9.35738 30.1495 10.4637C30.1496 11.5698 29.5891 12.583 28.6504 13.1737C28.3422 13.3676 28.2496 13.7745 28.4435 14.0826C28.5687 14.2818 28.7829 14.3909 29.0019 14.3909C29.1219 14.3909 29.2434 14.3581 29.3523 14.2895C30.6769 13.4561 31.4678 12.0257 31.4678 10.4636C31.4678 8.9014 30.6769 7.47107 29.3523 6.6376Z" fill="#BC9A6C"/>
<path d="M19.6944 6.63752C19.3863 6.44363 18.9791 6.53627 18.7854 6.84441C18.5915 7.15256 18.6842 7.55949 18.9923 7.75338C19.9312 8.34409 20.4916 9.35721 20.4916 10.4635C20.4917 11.5698 19.9313 12.583 18.9924 13.1737C18.6843 13.3676 18.5916 13.7745 18.7855 14.0826C18.9108 14.2818 19.1249 14.3909 19.344 14.3909C19.4639 14.3909 19.5854 14.3581 19.6944 14.2895C21.0191 13.4561 21.8099 12.0257 21.8099 10.4636C21.8099 8.90132 21.0191 7.47107 19.6944 6.63752Z" fill="#BC9A6C"/>
</g>
<defs>
<clipPath id="clip0_1914_8242">
<rect width="45" height="45" fill="white"/>
</clipPath>
</defs>
</svg>
